<?xml version="1.0" encoding="UTF-8"?>
<svg id="Layer_2" data-name="Layer 2" xmlns="http://www.w3.org/2000/svg" viewBox="0 0 666.4 78">
  <defs>
    <style>
      .cls-1 {
        fill: #3f83f8;
      }
    </style>
  </defs>
  <g id="Layer_1-2" data-name="Layer 1">
    <g>
      <path class="cls-1" d="M147.78,66.05h-10.12l18.43-52.36h11.71l18.46,52.36h-10.12l-13.99-41.62h-.41l-13.96,41.62Zm.33-20.53h27.61v7.62h-27.61v-7.62Z"/>
      <path class="cls-1" d="M217.78,49.53V26.78h9.26v39.27h-8.97v-6.98h-.41c-.89,2.2-2.34,4-4.36,5.39s-4.5,2.1-7.45,2.1c-2.57,0-4.85-.58-6.81-1.73-1.97-1.15-3.51-2.83-4.62-5.04s-1.66-4.88-1.66-8.02V26.78h9.26v23.57c0,2.49,.68,4.47,2.05,5.93s3.15,2.2,5.37,2.2c1.36,0,2.68-.33,3.96-1,1.28-.66,2.33-1.66,3.16-2.98,.83-1.32,1.24-2.98,1.24-4.97Z"/>
      <path class="cls-1" d="M251.12,66.74c-3.09,0-5.85-.79-8.28-2.38-2.44-1.58-4.36-3.89-5.78-6.9-1.42-3.02-2.12-6.68-2.12-10.99s.72-8.05,2.16-11.06c1.44-3.01,3.39-5.28,5.84-6.83,2.45-1.54,5.19-2.31,8.21-2.31,2.3,0,4.19,.39,5.68,1.16,1.48,.78,2.66,1.7,3.53,2.79,.87,1.08,1.54,2.1,2.02,3.06h.38V13.69h9.28v52.36h-9.1v-6.19h-.56c-.48,.96-1.17,1.96-2.07,3.03s-2.1,1.97-3.58,2.72c-1.48,.75-3.35,1.12-5.6,1.12Zm2.58-7.59c1.96,0,3.63-.53,5.01-1.6s2.43-2.55,3.15-4.46c.72-1.91,1.07-4.13,1.07-6.67s-.35-4.75-1.06-6.62c-.71-1.88-1.75-3.33-3.12-4.37-1.37-1.04-3.06-1.56-5.05-1.56s-3.78,.54-5.17,1.61c-1.38,1.07-2.42,2.56-3.12,4.45-.7,1.89-1.05,4.06-1.05,6.49s.35,4.64,1.06,6.56c.71,1.92,1.76,3.43,3.15,4.53,1.39,1.1,3.1,1.65,5.13,1.65Z"/>
      <path class="cls-1" d="M286.59,21.2c-1.47,0-2.73-.49-3.78-1.48-1.06-.99-1.59-2.17-1.59-3.55s.53-2.56,1.59-3.54c1.06-.98,2.32-1.47,3.78-1.47s2.75,.49,3.8,1.48c1.05,.99,1.57,2.17,1.57,3.55s-.52,2.56-1.57,3.54c-1.05,.98-2.31,1.47-3.8,1.47Zm-4.65,44.85V26.78h9.26v39.27h-9.26Z"/>
      <path class="cls-1" d="M317.83,66.82c-3.83,0-7.16-.84-9.97-2.53s-4.99-4.05-6.53-7.08c-1.54-3.03-2.31-6.58-2.31-10.64s.77-7.61,2.31-10.66c1.54-3.05,3.72-5.42,6.53-7.11s6.14-2.53,9.97-2.53,7.16,.84,9.97,2.53,4.99,4.06,6.53,7.11c1.54,3.05,2.31,6.61,2.31,10.66s-.77,7.6-2.31,10.64c-1.54,3.03-3.72,5.4-6.53,7.08s-6.14,2.53-9.97,2.53Zm.05-7.42c2.08,0,3.82-.58,5.22-1.73,1.4-1.15,2.44-2.7,3.13-4.64s1.04-4.11,1.04-6.49-.34-4.58-1.04-6.53c-.69-1.95-1.73-3.51-3.13-4.67-1.4-1.16-3.14-1.74-5.22-1.74s-3.9,.58-5.31,1.74c-1.41,1.16-2.45,2.71-3.15,4.67-.69,1.95-1.04,4.13-1.04,6.53s.35,4.55,1.04,6.49,1.74,3.49,3.15,4.64,3.17,1.73,5.31,1.73Z"/>
      <path class="cls-1" d="M364.36,26.78v7.16h-23.22v-7.16h23.22Zm-17.41,39.27V23.07c0-2.64,.55-4.84,1.65-6.6,1.1-1.76,2.58-3.07,4.44-3.94s3.92-1.3,6.19-1.3c1.6,0,3.03,.13,4.27,.38,1.24,.26,2.16,.49,2.76,.69l-1.84,7.16c-.39-.12-.89-.24-1.48-.37s-1.26-.19-1.99-.19c-1.72,0-2.94,.41-3.64,1.24-.71,.83-1.06,2.01-1.06,3.54v42.37h-9.28Z"/>
      <path class="cls-1" d="M389.01,66.82c-3.94,0-7.33-.82-10.19-2.47-2.86-1.64-5.05-3.98-6.58-7.01-1.53-3.03-2.3-6.59-2.3-10.7s.77-7.59,2.31-10.65c1.54-3.06,3.7-5.45,6.48-7.16,2.78-1.71,6.04-2.57,9.79-2.57,2.42,0,4.71,.39,6.87,1.16,2.16,.78,4.06,1.97,5.73,3.59,1.66,1.62,2.97,3.68,3.92,6.17,.95,2.5,1.43,5.47,1.43,8.91v2.84h-32.19v-6.24h23.32c-.02-1.77-.4-3.35-1.15-4.74-.75-1.39-1.79-2.48-3.13-3.29-1.34-.8-2.89-1.2-4.67-1.2-1.89,0-3.55,.46-4.99,1.37-1.43,.91-2.54,2.11-3.34,3.58-.79,1.47-1.2,3.09-1.21,4.84v5.45c0,2.28,.42,4.24,1.25,5.87,.83,1.63,2,2.87,3.5,3.73,1.5,.86,3.26,1.29,5.27,1.29,1.35,0,2.56-.19,3.66-.58,1.09-.38,2.04-.95,2.84-1.7,.8-.75,1.41-1.68,1.82-2.79l8.64,.97c-.55,2.29-1.58,4.27-3.11,5.97-1.53,1.7-3.47,3.01-5.84,3.94-2.37,.93-5.08,1.39-8.13,1.39Z"/>
      <path class="cls-1" d="M431.68,66.82c-3.94,0-7.33-.82-10.19-2.47-2.86-1.64-5.05-3.98-6.58-7.01-1.53-3.03-2.3-6.59-2.3-10.7s.77-7.59,2.31-10.65c1.54-3.06,3.7-5.45,6.48-7.16,2.78-1.71,6.04-2.57,9.79-2.57,2.42,0,4.71,.39,6.87,1.16,2.16,.78,4.06,1.97,5.73,3.59,1.66,1.62,2.97,3.68,3.92,6.17,.95,2.5,1.43,5.47,1.43,8.91v2.84h-32.19v-6.24h23.32c-.02-1.77-.4-3.35-1.15-4.74-.75-1.39-1.79-2.48-3.13-3.29-1.34-.8-2.89-1.2-4.67-1.2-1.89,0-3.55,.46-4.99,1.37-1.43,.91-2.54,2.11-3.34,3.58-.79,1.47-1.2,3.09-1.21,4.84v5.45c0,2.28,.42,4.24,1.25,5.87,.83,1.63,2,2.87,3.5,3.73,1.5,.86,3.26,1.29,5.27,1.29,1.35,0,2.56-.19,3.66-.58,1.09-.38,2.04-.95,2.84-1.7,.8-.75,1.41-1.68,1.82-2.79l8.64,.97c-.55,2.29-1.58,4.27-3.11,5.97-1.53,1.7-3.47,3.01-5.84,3.94-2.37,.93-5.08,1.39-8.13,1.39Z"/>
      <path class="cls-1" d="M471.54,66.74c-3.09,0-5.85-.79-8.28-2.38-2.44-1.58-4.36-3.89-5.78-6.9-1.42-3.02-2.12-6.68-2.12-10.99s.72-8.05,2.16-11.06c1.44-3.01,3.39-5.28,5.84-6.83,2.45-1.54,5.19-2.31,8.21-2.31,2.3,0,4.19,.39,5.68,1.16,1.48,.78,2.66,1.7,3.53,2.79,.87,1.08,1.54,2.1,2.02,3.06h.38V13.69h9.28v52.36h-9.1v-6.19h-.56c-.48,.96-1.17,1.96-2.07,3.03s-2.1,1.97-3.58,2.72c-1.48,.75-3.35,1.12-5.6,1.12Zm2.58-7.59c1.96,0,3.63-.53,5.01-1.6s2.43-2.55,3.15-4.46c.72-1.91,1.07-4.13,1.07-6.67s-.35-4.75-1.06-6.62c-.71-1.88-1.75-3.33-3.12-4.37-1.37-1.04-3.06-1.56-5.05-1.56s-3.78,.54-5.17,1.61c-1.38,1.07-2.42,2.56-3.12,4.45-.7,1.89-1.05,4.06-1.05,6.49s.35,4.64,1.06,6.56c.71,1.92,1.76,3.43,3.15,4.53,1.39,1.1,3.1,1.65,5.13,1.65Z"/>
      <path class="cls-1" d="M502.76,66.05V13.69h9.26v19.59h.38c.48-.95,1.15-1.97,2.02-3.06,.87-1.08,2.05-2.01,3.53-2.79,1.48-.78,3.38-1.16,5.68-1.16,3.03,0,5.77,.77,8.22,2.31,2.45,1.54,4.39,3.82,5.83,6.83,1.44,3.01,2.16,6.69,2.16,11.06s-.71,7.98-2.12,10.99c-1.42,3.02-3.34,5.32-5.78,6.9-2.44,1.59-5.2,2.38-8.28,2.38-2.25,0-4.12-.38-5.6-1.12s-2.67-1.66-3.57-2.72-1.59-2.08-2.08-3.03h-.54v6.19h-9.1Zm9.08-19.64c0,2.54,.36,4.76,1.09,6.67,.72,1.91,1.77,3.4,3.15,4.46,1.37,1.07,3.04,1.6,5,1.6s3.76-.55,5.14-1.65c1.38-1.1,2.42-2.61,3.13-4.53,.71-1.92,1.06-4.1,1.06-6.56s-.35-4.6-1.05-6.49c-.7-1.89-1.74-3.38-3.12-4.45-1.38-1.07-3.1-1.61-5.16-1.61s-3.66,.52-5.04,1.56c-1.38,1.04-2.42,2.5-3.13,4.37-.71,1.88-1.06,4.08-1.06,6.62Z"/>
      <path class="cls-1" d="M559.04,66.84c-2.49,0-4.73-.45-6.71-1.34-1.99-.89-3.55-2.22-4.7-3.98-1.15-1.75-1.73-3.92-1.73-6.49,0-2.22,.41-4.05,1.23-5.5s1.93-2.61,3.35-3.48c1.41-.87,3.01-1.53,4.79-1.98,1.78-.45,3.63-.78,5.54-.98,2.3-.24,4.17-.46,5.6-.65,1.43-.2,2.48-.5,3.13-.92,.66-.42,.98-1.07,.98-1.96v-.15c0-1.93-.57-3.42-1.71-4.47-1.14-1.06-2.79-1.58-4.93-1.58-2.27,0-4.06,.49-5.38,1.48-1.32,.99-2.21,2.16-2.67,3.5l-8.64-1.23c.68-2.39,1.81-4.38,3.38-6,1.57-1.61,3.49-2.82,5.75-3.63,2.27-.81,4.77-1.21,7.52-1.21,1.89,0,3.78,.22,5.65,.67,1.87,.44,3.59,1.17,5.14,2.19,1.55,1.01,2.8,2.39,3.75,4.13,.95,1.74,1.42,3.91,1.42,6.52v26.28h-8.9v-5.39h-.31c-.56,1.09-1.35,2.11-2.36,3.06-1.01,.95-2.28,1.7-3.81,2.28-1.53,.57-3.31,.86-5.36,.86Zm2.4-6.8c1.86,0,3.47-.37,4.83-1.11,1.36-.74,2.42-1.73,3.16-2.95,.74-1.23,1.11-2.57,1.11-4.01v-4.63c-.29,.24-.78,.46-1.47,.67-.69,.2-1.46,.38-2.31,.54-.85,.15-1.7,.29-2.53,.41-.84,.12-1.56,.22-2.17,.31-1.38,.19-2.62,.49-3.71,.92-1.09,.43-1.95,1.02-2.58,1.78-.63,.76-.95,1.73-.95,2.93,0,1.7,.62,2.99,1.87,3.86,1.24,.87,2.83,1.3,4.76,1.3Z"/>
      <path class="cls-1" d="M606.24,66.82c-3.92,0-7.28-.86-10.09-2.58-2.8-1.72-4.96-4.1-6.47-7.15-1.51-3.04-2.26-6.55-2.26-10.52s.77-7.51,2.3-10.57c1.53-3.06,3.7-5.45,6.51-7.16,2.8-1.71,6.12-2.57,9.96-2.57,3.19,0,6.01,.58,8.48,1.75,2.46,1.17,4.43,2.81,5.89,4.93,1.47,2.12,2.3,4.6,2.51,7.43h-8.85c-.36-1.89-1.21-3.47-2.54-4.74-1.34-1.27-3.12-1.9-5.36-1.9-1.89,0-3.55,.51-4.99,1.52-1.43,1.01-2.54,2.47-3.34,4.36s-1.19,4.16-1.19,6.8,.39,4.97,1.18,6.89c.78,1.92,1.89,3.39,3.31,4.42,1.42,1.03,3.1,1.55,5.02,1.55,1.36,0,2.59-.26,3.67-.78,1.08-.52,1.99-1.27,2.72-2.26,.73-.99,1.24-2.19,1.51-3.6h8.85c-.22,2.78-1.04,5.24-2.45,7.38-1.42,2.14-3.34,3.81-5.78,5.01-2.44,1.2-5.3,1.8-8.59,1.8Z"/>
      <path class="cls-1" d="M630.68,66.05V13.69h9.26v52.36h-9.26Zm8.44-12.32l-.03-11.17h1.48l14.11-15.78h10.82l-17.36,19.33h-1.92l-7.11,7.62Zm16.21,12.32l-12.78-17.87,6.24-6.52,17.62,24.39h-11.07Z"/>
    </g>
    <g>
      <polyline class="cls-1" points="58.53 77.91 65.56 0 73.29 77.91 84.53 0 94.01 77.91 106.31 0 116.85 77.91 125.28 0"/>
      <g>
        <path class="cls-1" d="M0,39V16H21.79s10.81-.99,13.99-16h10.22V39H0Z"/>
        <path class="cls-1" d="M0,37v24.18H21.79s10.81,1.04,13.99,16.82c0,0,0,0,0,0h10.22s0-41,0-41H0Z"/>
      </g>
    </g>
  </g>
</svg>